
<svg width="214px" height="19px" viewBox="12 110 214 19" version="1.1" xmlns="http://www.w3.org/2000/svg" xmlns:xlink="http://www.w3.org/1999/xlink">
    <!-- Generator: Sketch 39.1 (31720) - http://www.bohemiancoding.com/sketch -->
    <desc>Created with Sketch.</desc>
    <defs></defs>
    <g id="theguardian-documentaries" stroke="none" stroke-width="1" fill="none" fill-rule="evenodd" transform="translate(12.000000, 110.000000)">
        <path d="M102.048,5.216 C101.68,4.96 101.104,4.848 100.608,4.848 C98.24,4.848 96.24,6.144 96.24,9.76 C96.24,13.2 98.192,14.24 99.824,14.24 C100.944,14.24 101.712,13.744 102.08,13.264 L102.176,13.264 L102.176,14.192 L102.432,14.192 L105.968,13.792 L105.968,13.024 L105.024,12.496 L105.024,1.168 L104.784,1.168 L101.056,1.76 L101.056,2.576 L102.048,3.024 L102.048,5.216 Z M102.048,12.464 C101.84,12.544 101.584,12.624 101.136,12.624 C99.952,12.624 99.392,11.664 99.392,9.456 C99.392,6.928 100.096,6.08 101.04,6.08 C101.568,6.08 101.824,6.224 102.048,6.4 L102.048,12.464 Z M110.8,4.816 C108.08,4.816 106.208,6.48 106.208,9.52 C106.208,12.56 108.08,14.24 110.8,14.24 C113.52,14.24 115.392,12.56 115.392,9.52 C115.392,6.48 113.52,4.816 110.8,4.816 L110.8,4.816 Z M110.816,12.992 C109.824,12.992 109.328,12.48 109.328,9.52 C109.328,6.56 109.824,6.048 110.816,6.048 C111.808,6.048 112.272,6.56 112.272,9.52 C112.272,12.48 111.808,12.992 110.816,12.992 L110.816,12.992 Z M120.48,14.224 C121.936,14.224 123.184,13.52 123.664,12.944 L123.664,12.112 C123.232,12.24 122.32,12.368 121.488,12.368 C120.032,12.368 118.928,11.472 118.928,9.36 C118.928,6.912 119.68,5.984 120.672,5.984 C121.072,5.984 121.392,6.048 121.536,6.112 L122.048,7.872 L123.6,7.872 L123.6,5.184 C123.088,4.992 121.792,4.816 120.752,4.816 C117.792,4.816 115.872,6.576 115.872,9.52 C115.872,12.352 117.44,14.224 120.48,14.224 L120.48,14.224 Z M125.088,11.392 C125.088,12.944 125.856,14.24 127.664,14.24 C128.864,14.24 129.808,13.712 130.384,13.008 L130.496,13.008 L130.496,14.192 L130.736,14.192 L134.368,13.792 L134.368,13.024 L133.36,12.496 L133.36,4.832 L133.12,4.832 L129.392,5.424 L129.392,6.24 L130.384,6.704 L130.384,12.144 C130.08,12.272 129.808,12.352 129.312,12.352 C128.56,12.352 128.064,12.176 128.064,11.152 L128.064,4.832 L127.808,4.832 L124.08,5.424 L124.08,6.24 L125.088,6.704 L125.088,11.392 Z M134.624,14 L139.36,14 L139.36,13.184 L138.576,12.736 L138.576,6.848 C138.928,6.688 139.248,6.608 139.568,6.608 C140.384,6.608 140.672,6.944 140.672,7.872 L140.672,12.736 L139.888,13.184 L139.888,14 L144.432,14 L144.432,13.184 L143.648,12.736 L143.648,6.832 C143.984,6.688 144.336,6.608 144.64,6.608 C145.44,6.608 145.744,6.944 145.744,7.872 L145.744,12.736 L144.96,13.184 L144.96,14 L149.68,14 L149.68,13.184 L148.704,12.736 L148.704,7.216 C148.704,5.568 147.92,4.816 146.432,4.816 C145.216,4.816 144.336,5.248 143.536,5.984 L143.456,5.984 C143.136,5.184 142.464,4.816 141.408,4.816 C140.192,4.816 139.424,5.248 138.624,5.984 L138.528,5.984 L138.528,4.816 L138.288,4.816 L134.576,5.408 L134.576,6.192 L135.6,6.656 L135.6,12.736 L134.624,13.184 L134.624,14 Z M154.4,5.808 C155.136,5.808 155.536,6.192 155.536,8.576 L153.056,8.72 C153.088,6.336 153.584,5.808 154.4,5.808 L154.4,5.808 Z M158.432,9.792 C158.432,6.032 157.136,4.832 154.448,4.832 C151.776,4.832 150.032,6.544 150.032,9.504 C150.032,12.544 151.616,14.24 154.688,14.24 C156.336,14.24 157.68,13.504 158.096,12.928 L158.096,12.064 C157.472,12.256 156.832,12.368 155.696,12.368 C154.064,12.368 153.232,11.536 153.088,9.792 L158.432,9.792 Z M158.768,14 L163.664,14 L163.664,13.184 L162.72,12.736 L162.72,6.848 C163.088,6.704 163.488,6.608 163.936,6.608 C164.752,6.608 165.136,6.944 165.136,7.872 L165.136,12.736 L164.192,13.184 L164.192,14 L169.088,14 L169.088,13.184 L168.112,12.736 L168.112,7.2 C168.112,5.552 167.36,4.816 165.872,4.816 C164.656,4.816 163.568,5.248 162.768,5.984 L162.672,5.984 L162.672,4.816 L162.432,4.816 L158.72,5.408 L158.72,6.192 L159.744,6.656 L159.744,12.736 L158.768,13.184 L158.768,14 Z M170.56,11.552 C170.56,13.456 171.392,14.24 173.168,14.24 C174.096,14.24 175.104,14 175.6,13.712 L175.6,12.56 C175.376,12.592 174.96,12.624 174.64,12.624 C173.776,12.624 173.536,12.176 173.536,11.296 L173.536,6.576 L175.488,6.576 L175.488,5.04 L173.536,5.04 L173.536,2.944 L170.56,3.36 L170.56,5.04 L169.184,5.232 L169.184,6.576 L170.56,6.576 L170.56,11.552 Z M180.72,12.272 C180.56,12.448 180.224,12.608 179.904,12.608 C179.328,12.608 178.784,12.288 178.784,11.296 C178.784,10.448 179.344,9.984 180.032,9.92 L180.72,9.856 L180.72,12.272 Z M178.464,6.016 C178.656,6 179.088,5.984 179.232,5.984 C180.384,5.984 180.72,6.56 180.72,7.696 L180.72,8.896 L179.008,9.184 C177.024,9.52 175.84,9.888 175.84,11.728 C175.84,13.216 176.832,14.24 178.416,14.24 C179.536,14.24 180.592,13.76 180.992,12.96 L181.072,12.96 C181.216,13.92 182.048,14.224 182.976,14.224 C183.696,14.224 184.368,14.016 184.656,13.856 L184.656,13.184 L183.712,12.736 L183.712,7.536 C183.712,5.52 182.272,4.816 179.872,4.816 C178.304,4.816 177.296,5.232 176.448,5.504 L176.448,7.84 L177.84,7.84 L178.464,6.016 Z M184.784,5.376 L184.784,6.192 L185.776,6.656 L185.776,12.72 L184.832,13.168 L184.832,14 L189.984,14 L189.984,13.168 L188.752,12.72 L188.752,7.744 C189.264,7.504 189.936,7.424 190.736,7.424 C190.992,7.424 191.312,7.456 191.488,7.504 L191.488,4.896 C191.392,4.864 191.2,4.848 191.04,4.848 C190.064,4.848 189.264,5.488 188.736,6.672 L188.64,6.672 L188.64,4.784 L188.384,4.784 L184.784,5.376 Z M191.616,5.376 L191.616,6.192 L192.624,6.656 L192.624,12.72 L191.664,13.168 L191.664,14 L196.56,14 L196.56,13.168 L195.6,12.72 L195.6,4.784 L195.36,4.784 L191.616,5.376 Z M194.064,1.104 C193.184,1.104 192.48,1.808 192.48,2.688 C192.48,3.552 193.184,4.256 194.064,4.256 C194.928,4.256 195.648,3.552 195.648,2.688 C195.648,1.808 194.928,1.104 194.064,1.104 L194.064,1.104 Z M201.264,5.808 C202,5.808 202.4,6.192 202.4,8.576 L199.92,8.72 C199.952,6.336 200.448,5.808 201.264,5.808 L201.264,5.808 Z M205.296,9.792 C205.296,6.032 204,4.832 201.312,4.832 C198.64,4.832 196.896,6.544 196.896,9.504 C196.896,12.544 198.48,14.24 201.552,14.24 C203.2,14.24 204.544,13.504 204.96,12.928 L204.96,12.064 C204.336,12.256 203.696,12.368 202.56,12.368 C200.928,12.368 200.096,11.536 199.952,9.792 L205.296,9.792 Z M208.848,14.224 C211.696,14.224 212.88,12.944 212.88,11.072 C212.88,9.712 212.224,8.56 210.496,8.192 L209.44,7.968 C208.448,7.76 208.208,7.44 208.208,6.912 C208.208,6.368 208.688,6.032 209.392,6.032 C209.872,6.032 210.496,6.144 210.704,6.256 L211.088,7.488 L212.336,7.488 L212.336,5.28 C211.632,4.976 210.56,4.816 209.504,4.816 C206.864,4.816 205.696,6.08 205.696,7.792 C205.696,9.12 206.464,10.432 208.112,10.8 L209.2,11.04 C210.16,11.248 210.384,11.52 210.384,12.176 C210.384,12.88 209.792,13.072 208.944,13.072 C208.432,13.072 207.712,12.976 207.504,12.784 L206.992,11.296 L205.728,11.296 L205.728,13.664 C206.592,14.032 207.888,14.224 208.848,14.224 L208.848,14.224 Z" id="documentaries" fill="#FEBB00"></path>
        <path d="M1.376,11.552 C1.376,13.456 2.208,14.24 3.984,14.24 C4.912,14.24 5.92,14 6.416,13.712 L6.416,12.56 C6.192,12.592 5.776,12.624 5.456,12.624 C4.592,12.624 4.352,12.176 4.352,11.296 L4.352,6.576 L6.304,6.576 L6.304,5.04 L4.352,5.04 L4.352,2.944 L1.376,3.36 L1.376,5.04 L0,5.232 L0,6.576 L1.376,6.576 L1.376,11.552 Z M6.576,14 L11.472,14 L11.472,13.184 L10.528,12.736 L10.528,6.848 C10.896,6.704 11.296,6.608 11.744,6.608 C12.56,6.608 12.944,6.944 12.944,7.872 L12.944,12.736 L12,13.184 L12,14 L16.896,14 L16.896,13.184 L15.92,12.736 L15.92,7.2 C15.92,5.552 15.168,4.816 13.68,4.816 C12.464,4.816 11.376,5.248 10.576,5.984 L10.48,5.984 L10.48,0.992 L10.24,0.992 L6.528,1.584 L6.528,2.368 L7.552,2.832 L7.552,12.736 L6.576,13.184 L6.576,14 Z M21.6,5.808 C22.336,5.808 22.736,6.192 22.736,8.576 L20.256,8.72 C20.288,6.336 20.784,5.808 21.6,5.808 L21.6,5.808 Z M25.632,9.792 C25.632,6.032 24.336,4.832 21.648,4.832 C18.976,4.832 17.232,6.544 17.232,9.504 C17.232,12.544 18.816,14.24 21.888,14.24 C23.536,14.24 24.88,13.504 25.296,12.928 L25.296,12.064 C24.672,12.256 24.032,12.368 22.896,12.368 C21.264,12.368 20.432,11.536 20.288,9.792 L25.632,9.792 Z M30.144,16.96 C28.512,16.96 27.952,16.384 27.952,15.76 C27.952,15.328 28.064,15.024 28.304,14.752 L31.44,14.752 C32.176,14.752 32.512,14.976 32.512,15.44 C32.512,16.368 32,16.96 30.144,16.96 L30.144,16.96 Z M30.16,5.824 C30.816,5.824 31.232,6.096 31.232,7.888 C31.232,9.68 30.8,9.872 30.16,9.872 C29.52,9.872 29.104,9.712 29.104,7.888 C29.104,6.064 29.52,5.824 30.16,5.824 L30.16,5.824 Z M32.128,12.032 L28.928,12.032 C28.576,12.032 28.288,11.776 28.288,11.456 C28.288,11.216 28.464,10.96 28.688,10.8 C29.168,10.944 29.568,10.976 30.16,10.976 C32.464,10.976 34.048,9.936 34.048,7.984 C34.048,7.104 33.68,6.608 33.12,6.096 L33.12,6.032 L34.608,6.56 L34.816,6.56 L34.816,4.784 L34.64,4.784 L32.352,5.232 L32.224,5.232 C31.664,5.024 30.88,4.8 30.16,4.8 C27.856,4.8 26.256,5.952 26.256,7.888 C26.256,9.072 26.848,9.952 27.744,10.448 L27.744,10.544 C27.232,10.896 26.24,11.648 26.24,12.592 C26.24,13.296 26.704,13.984 27.664,14.192 L27.664,14.288 C26.656,14.496 25.52,14.832 25.52,16 C25.52,17.2 27.248,18.08 30.064,18.08 C33.568,18.08 35.088,16.736 35.088,14.608 C35.088,12.848 34.112,12.032 32.128,12.032 L32.128,12.032 Z M36.032,11.392 C36.032,12.944 36.8,14.24 38.608,14.24 C39.808,14.24 40.752,13.712 41.328,13.008 L41.44,13.008 L41.44,14.192 L41.68,14.192 L45.312,13.792 L45.312,13.024 L44.304,12.496 L44.304,4.832 L44.064,4.832 L40.336,5.424 L40.336,6.24 L41.328,6.704 L41.328,12.144 C41.024,12.272 40.752,12.352 40.256,12.352 C39.504,12.352 39.008,12.176 39.008,11.152 L39.008,4.832 L38.752,4.832 L35.024,5.424 L35.024,6.24 L36.032,6.704 L36.032,11.392 Z M50.512,12.272 C50.352,12.448 50.016,12.608 49.696,12.608 C49.12,12.608 48.576,12.288 48.576,11.296 C48.576,10.448 49.136,9.984 49.824,9.92 L50.512,9.856 L50.512,12.272 Z M48.256,6.016 C48.448,6 48.88,5.984 49.024,5.984 C50.176,5.984 50.512,6.56 50.512,7.696 L50.512,8.896 L48.8,9.184 C46.816,9.52 45.632,9.888 45.632,11.728 C45.632,13.216 46.624,14.24 48.208,14.24 C49.328,14.24 50.384,13.76 50.784,12.96 L50.864,12.96 C51.008,13.92 51.84,14.224 52.768,14.224 C53.488,14.224 54.16,14.016 54.448,13.856 L54.448,13.184 L53.504,12.736 L53.504,7.536 C53.504,5.52 52.064,4.816 49.664,4.816 C48.096,4.816 47.088,5.232 46.24,5.504 L46.24,7.84 L47.632,7.84 L48.256,6.016 Z M54.576,5.376 L54.576,6.192 L55.568,6.656 L55.568,12.72 L54.624,13.168 L54.624,14 L59.776,14 L59.776,13.168 L58.544,12.72 L58.544,7.744 C59.056,7.504 59.728,7.424 60.528,7.424 C60.784,7.424 61.104,7.456 61.28,7.504 L61.28,4.896 C61.184,4.864 60.992,4.848 60.832,4.848 C59.856,4.848 59.056,5.488 58.528,6.672 L58.432,6.672 L58.432,4.784 L58.176,4.784 L54.576,5.376 Z M67.328,5.216 C66.96,4.96 66.384,4.848 65.888,4.848 C63.52,4.848 61.52,6.144 61.52,9.76 C61.52,13.2 63.472,14.24 65.104,14.24 C66.224,14.24 66.992,13.744 67.36,13.264 L67.456,13.264 L67.456,14.192 L67.712,14.192 L71.248,13.792 L71.248,13.024 L70.304,12.496 L70.304,1.168 L70.064,1.168 L66.336,1.76 L66.336,2.576 L67.328,3.024 L67.328,5.216 Z M67.328,12.464 C67.12,12.544 66.864,12.624 66.416,12.624 C65.232,12.624 64.672,11.664 64.672,9.456 C64.672,6.928 65.376,6.08 66.32,6.08 C66.848,6.08 67.104,6.224 67.328,6.4 L67.328,12.464 Z M71.376,5.376 L71.376,6.192 L72.384,6.656 L72.384,12.72 L71.424,13.168 L71.424,14 L76.32,14 L76.32,13.168 L75.36,12.72 L75.36,4.784 L75.12,4.784 L71.376,5.376 Z M73.824,1.104 C72.944,1.104 72.24,1.808 72.24,2.688 C72.24,3.552 72.944,4.256 73.824,4.256 C74.688,4.256 75.408,3.552 75.408,2.688 C75.408,1.808 74.688,1.104 73.824,1.104 L73.824,1.104 Z M81.536,12.272 C81.376,12.448 81.04,12.608 80.72,12.608 C80.144,12.608 79.6,12.288 79.6,11.296 C79.6,10.448 80.16,9.984 80.848,9.92 L81.536,9.856 L81.536,12.272 Z M79.28,6.016 C79.472,6 79.904,5.984 80.048,5.984 C81.2,5.984 81.536,6.56 81.536,7.696 L81.536,8.896 L79.824,9.184 C77.84,9.52 76.656,9.888 76.656,11.728 C76.656,13.216 77.648,14.24 79.232,14.24 C80.352,14.24 81.408,13.76 81.808,12.96 L81.888,12.96 C82.032,13.92 82.864,14.224 83.792,14.224 C84.512,14.224 85.184,14.016 85.472,13.856 L85.472,13.184 L84.528,12.736 L84.528,7.536 C84.528,5.52 83.088,4.816 80.688,4.816 C79.12,4.816 78.112,5.232 77.264,5.504 L77.264,7.84 L78.656,7.84 L79.28,6.016 Z M85.648,14 L90.544,14 L90.544,13.184 L89.6,12.736 L89.6,6.848 C89.968,6.704 90.368,6.608 90.816,6.608 C91.632,6.608 92.016,6.944 92.016,7.872 L92.016,12.736 L91.072,13.184 L91.072,14 L95.968,14 L95.968,13.184 L94.992,12.736 L94.992,7.2 C94.992,5.552 94.24,4.816 92.752,4.816 C91.536,4.816 90.448,5.248 89.648,5.984 L89.552,5.984 L89.552,4.816 L89.312,4.816 L85.6,5.408 L85.6,6.192 L86.624,6.656 L86.624,12.736 L85.648,13.184 L85.648,14 Z" id="theguardian" fill="#F6F6F6"></path>
    </g>
</svg>
